<svg viewBox="0 0 201 90" version="1.1" xmlns="http://www.w3.org/2000/svg" xmlns:xlink="http://www.w3.org/1999/xlink"><defs><path id="a" d="M17.813 21.82V.465H.956V21.82h16.857z"/></defs><g stroke="none" stroke-width="1" fill="none" fill-rule="evenodd"><g><path d="M48.867 75.023c-.27-2.67-1.351-3.898-3.06-3.898-1.38 0-2.79.78-2.79 2.308 0 1.53 1.41 2.1 2.58 2.55l2.97 1.17c2.487.99 4.589 2.34 4.589 5.67 0 4.139-3.21 6.358-7.2 6.358-4.408 0-7.558-2.73-7.558-7.23l3.6-.78c.3 2.73 1.53 4.35 3.899 4.35 1.53 0 3.21-.66 3.21-2.46 0-1.62-1.41-2.159-3.09-2.819l-2.79-1.11C40.647 78.112 39 76.613 39 73.734c0-3.96 3.089-6.268 6.867-6.268 3.96 0 6.599 2.52 6.599 6.779l-3.6.778zM69.055 89l-3.209-11.518L62.637 89h-3.389l-5.13-21.355h4.049l3.03 13.918 2.79-11.098h3.718l2.76 11.098 3.059-13.918h4.079L72.445 89zm10.415 0V67.645h13.705v3.63h-9.718v5.158h5.998v3.63h-5.998v5.308h9.718v3.63zm23.216-3.629c2.01 0 4.47-1.26 4.47-6.959 0-5.878-2.64-7.138-4.74-7.138h-2.548v14.097h2.818zm-6.808 3.63V67.643h6.808c4.109 0 8.519 2.851 8.519 10.708 0 7.738-4.26 10.648-8.22 10.648h-7.107zm18.63-.001V67.645h13.706v3.63h-9.718v5.158h5.998v3.63h-5.998v5.308h9.718v3.63zm29.006 0l-8.607-13.887V89h-3.99V67.645h3.868l8.579 13.827V67.645h3.989V89zM48.867 45.023c-.27-2.67-1.351-3.899-3.06-3.899-1.38 0-2.79.78-2.79 2.31 0 1.529 1.41 2.1 2.58 2.549l2.97 1.17c2.487.99 4.589 2.34 4.589 5.67 0 4.139-3.21 6.358-7.2 6.358-4.408 0-7.558-2.73-7.558-7.23l3.6-.78c.3 2.73 1.53 4.35 3.899 4.35 1.53 0 3.21-.66 3.21-2.46 0-1.62-1.41-2.158-3.09-2.819l-2.79-1.11C40.647 48.112 39 46.614 39 43.734c0-3.96 3.089-6.269 6.867-6.269 3.96 0 6.599 2.52 6.599 6.78l-3.6.779zM69.205 59V45.354l-3.569 6.447h-2.22l-3.568-6.447V59h-3.99V37.645h3.99l4.677 8.46 4.68-8.46h3.99V59zm14.823-14.906l-1.98 6.088h3.988l-2.008-6.088zM88.856 59l-1.68-5.158h-6.298L79.198 59h-4.14l7.05-21.355h3.868L93.025 59h-4.17zm13.11-12.357c1.98 0 3.21-.84 3.21-2.608 0-1.8-1.23-2.76-3.21-2.76h-3.089v5.368h3.09zM105.686 59l-5.76-8.728h-1.049V59h-3.989V37.645h7.288c4.5 0 7.048 2.519 7.048 6.39 0 3.178-1.68 5.337-4.859 6.028l5.82 8.937h-4.5zm11.012 0V41.274h-5.938v-3.629h15.866v3.63h-5.94V59zm35.096-6.178c-1.59 4.708-4.77 6.358-7.799 6.358-3.989 0-8.516-2.85-8.516-10.857 0-8.009 4.527-10.857 8.516-10.857 3.03 0 6.21 1.648 7.77 6.328l-3.81.96c-.93-2.789-2.4-3.63-3.96-3.63-1.919 0-4.468 1.23-4.468 7.2 0 5.967 2.55 7.196 4.498 7.196 1.561 0 2.97-.809 3.9-3.479l3.87.781zM153.598 59v-3.18h3.809V40.824h-3.809v-3.179h11.577v3.18h-3.779V55.82h3.779V59zm19.019 0V41.274h-5.94v-3.629h15.867v3.63h-5.939V59z" fill="#005293"/><g transform="translate(183 37.18)"><mask id="b" fill="#fff"><use xlink:href="#a"/></mask><path fill="#005293" mask="url(#b)" d="M7.375 21.82v-8.248L.956.465h4.23l4.2 8.308L13.582.464h4.23l-6.45 13.108v8.248z"/></g><path fill="#01538F" d="M0-1v91h30V29h60V-1z"/></g></g></svg>