<svg viewBox="0 0 29 28" version="1.1" xmlns="http://www.w3.org/2000/svg"><g stroke="none" stroke-width="1" fill="none" fill-rule="evenodd"><g fill="#005195"><path d="M25.15 11.909l-7.356-1.094-3.294-6.74-3.291 6.74L3.85 11.91l5.333 5.241-1.272 7.428 6.588-3.51 6.572 3.51-1.256-7.428 5.333-5.241zm3.397-.211l-6.327 6.245 1.498 8.822c.021.123.021.231.021.353 0 .476-.21.882-.715.882-.245 0-.49-.087-.698-.21L14.5 23.624l-7.826 4.164c-.224.124-.45.211-.695.211-.505 0-.731-.424-.731-.882 0-.122.013-.23.034-.353l1.498-8.822-6.345-6.245c-.209-.23-.435-.53-.435-.848 0-.53.541-.74.976-.812L9.723 8.75 13.647.722C13.805.387 14.099 0 14.5 0c.403 0 .697.387.853.722l3.924 8.028 8.747 1.288c.422.072.976.282.976.812 0 .318-.224.619-.453.848z"/></g></g></svg>