<svg viewBox="0 0 29 28" version="1.1" xmlns="http://www.w3.org/2000/svg"><g stroke="none" stroke-width="1" fill="none" fill-rule="evenodd"><g fill="#FECB00"><path d="M28.547 11.698l-6.327 6.245 1.5 8.822c.016.123.016.231.016.353 0 .458-.208.882-.715.882-.242 0-.487-.087-.695-.21L14.5 23.624l-7.826 4.164c-.227.124-.453.211-.695.211-.507 0-.734-.424-.734-.882 0-.122.019-.23.037-.353l1.498-8.822-6.345-6.245c-.209-.23-.435-.53-.435-.848 0-.53.539-.74.976-.812l8.75-1.288 3.92-8.028C13.804.387 14.1 0 14.5 0c.4 0 .697.387.853.722l3.924 8.028 8.747 1.288c.42.072.976.282.976.812 0 .318-.226.619-.453.848"/></g></g></svg>